PathFileType  4	(X/Y/Z) C:\Users\antoi\Documents\MyRepositories\mobilecap\ResultsAnalysis
DataRate	CameraRate	NumFrames	NumMarkers	Units	OrigDataRate	OrigDataStartFrame	OrigNumFrames
100.0	100.0	6	51	mm	100.0	92	245
Frame#	Time	r_knee			r_shank_antsup			r_ankle			r_calc			r_5meta			r_toe			L_knee			L_shank_antsup			L_ankle			L_calc			L_5meta			L_toe			r_sh2			r_sh3			r_sh4			L_sh2			L_sh3			r_thigh1			r_thigh2			r_thigh3			r_thigh4			r_thigh5			L_thigh1			L_thigh2			L_thigh3			L_thigh4			r.ASIS			r.PSIS			L.ASIS			L.PSIS			C7			R_Shoulder			L_Shoulder			R_Sternum			L_Sternum			R_humerus			R_elbow_med			R_elbow_lat			R_forearm			R_wrist_radius			R_wrist_ulna			L_humerus			L_elbow_med			L_elbow_lat			L_forearm			L_wrist_radius			L_wrist_ulna			R_HJC			L_HJC			R_HJC_reg			L_HJC_reg			
		X1	Y1	Z1	X2	Y2	Z2	X3	Y3	Z3	X4	Y4	Z4	X5	Y5	Z5	X6	Y6	Z6	X7	Y7	Z7	X8	Y8	Z8	X9	Y9	Z9	X10	Y10	Z10	X11	Y11	Z11	X12	Y12	Z12	X13	Y13	Z13	X14	Y14	Z14	X15	Y15	Z15	X16	Y16	Z16	X17	Y17	Z17	X18	Y18	Z18	X19	Y19	Z19	X20	Y20	Z20	X21	Y21	Z21	X22	Y22	Z22	X23	Y23	Z23	X24	Y24	Z24	X25	Y25	Z25	X26	Y26	Z26	X27	Y27	Z27	X28	Y28	Z28	X29	Y29	Z29	X30	Y30	Z30	X31	Y31	Z31	X32	Y32	Z32	X33	Y33	Z33	X34	Y34	Z34	X35	Y35	Z35	X36	Y36	Z36	X37	Y37	Z37	X38	Y38	Z38	X39	Y39	Z39	X40	Y40	Z40	X41	Y41	Z41	X42	Y42	Z42	X43	Y43	Z43	X44	Y44	Z44	X45	Y45	Z45	X46	Y46	Z46	X47	Y47	Z47	X48	Y48	Z48	X49	Y49	Z49	X50	Y50	Z50	X51	Y51	Z51	

92	0.91000000	-672.71386	931.02044	-424.30138	-685.40361	806.37144	-432.17706	-907.10234	544.23501	-437.20933	-965.81916	569.92425	-496.74441	-880.79092	393.81130	-398.23287	-826.62839	378.18887	-460.94519	-678.22192	930.54839	-787.36118	-670.19617	819.06386	-773.24593	-884.51700	545.49983	-750.24829	-941.19061	571.71002	-690.19385	-848.50170	390.57997	-775.96789	-799.44787	383.27690	-714.28165	-730.59534	700.47908	-450.55390	-747.95703	823.80744	-389.56797	-788.93449	714.28271	-391.45245	-748.71080	854.09758	-801.65341	-781.93493	735.81583	-810.81413	-578.27601	1167.75478	-445.03593	-576.49367	1056.34490	-456.33857	-604.81403	1026.79006	-402.25001	-663.88606	1155.87279	-370.74729	-657.85103	1038.46915	-389.72091	-614.03519	1188.24876	-798.35303	-591.78698	1052.41478	-790.40735	-722.60968	1168.57101	-824.56233	-699.28633	1032.31256	-815.42789	-608.38984	1427.08672	-456.00338	-799.24678	1505.89770	-537.93626	-616.53588	1423.19460	-722.40653	-800.19678	1514.13266	-634.58497	-610.38453	1975.67150	-587.44103	-568.55662	1906.75169	-403.56277	-555.73266	1922.95633	-754.23370	-499.38557	1853.73655	-558.79783	-500.79970	1851.79069	-608.86878	-653.84305	1787.48246	-303.98645	-862.86793	1665.04615	-321.70405	-829.78954	1687.11350	-245.00022	-819.02835	1513.64549	-208.88943	-843.46178	1399.08608	-181.48200	-876.49137	1407.30461	-157.79645	-648.51125	1813.64084	-876.10677	-851.16559	1707.84335	-876.51067	-811.72420	1711.59018	-946.77207	-788.37956	1539.93366	-938.37508	-805.16889	1426.04677	-971.31228	-829.54545	1437.88648	-1010.68599	-708.46236	1368.93437	-489.90890	-713.83601	1357.23927	-702.91221	-699.00399	1353.06468	-498.88277	-700.72497	1368.00135	-674.16708	
93	0.92000000	-659.51397	933.64344	-424.45537	-669.50704	808.75700	-432.71058	-884.38909	539.95395	-438.51618	-943.19842	564.75583	-498.10934	-854.44529	389.40225	-401.45203	-798.81256	376.92321	-463.31781	-665.68856	932.96970	-788.23637	-654.95562	821.53586	-773.88443	-861.44309	541.59871	-750.39913	-918.81649	566.37515	-691.09707	-820.72420	387.49299	-775.75968	-771.54639	382.26016	-714.06731	-711.80319	701.68114	-451.57230	-732.66233	824.61868	-389.83003	-770.53791	713.99660	-391.53237	-734.33231	854.05763	-802.63877	-763.94855	734.87484	-811.81052	-567.82194	1171.38636	-444.93552	-564.82572	1060.02189	-456.32567	-592.87555	1030.14848	-402.48246	-653.18411	1158.68201	-370.56918	-645.92444	1041.37673	-389.25441	-603.62977	1191.35206	-798.65279	-580.28323	1055.78955	-790.89170	-711.82596	1170.93047	-825.52685	-687.30589	1034.65454	-816.50738	-599.84756	1428.52785	-456.21867	-789.97956	1508.47480	-538.35999	-607.82443	1424.49276	-722.11082	-791.52354	1515.57142	-634.79282	-596.17512	1977.09081	-588.36047	-555.25618	1908.04208	-404.41552	-542.19209	1923.66014	-755.05479	-486.73776	1853.99950	-559.53715	-488.22979	1851.96887	-609.56842	-643.42169	1790.85920	-304.83987	-854.86069	1672.86007	-323.90012	-822.09135	1694.60092	-247.26233	-815.99412	1521.15807	-210.01809	-843.49257	1407.27235	-182.30873	-876.65221	1416.26241	-159.12097	-637.08297	1816.38734	-877.07006	-842.06220	1715.04091	-876.67179	-802.91396	1718.10337	-946.95045	-783.88452	1545.91635	-940.29272	-803.37008	1432.72007	-972.98192	-827.99296	1445.06489	-1011.98258	-700.03574	1370.84772	-489.83026	-705.38433	1358.70221	-702.80906	-690.48412	1356.65019	-497.55554	-693.28689	1369.53755	-672.64724	
94	0.93000000	-647.04821	935.41187	-424.62921	-653.88988	810.41035	-432.99517	-860.78984	534.35780	-439.86008	-919.46347	558.40496	-499.94017	-827.49755	383.73414	-404.69991	-770.34247	374.39119	-465.41129	-653.60117	934.54159	-788.97368	-639.94583	823.29914	-774.39594	-837.85213	536.75271	-751.05813	-895.98453	559.78205	-691.70280	-792.06354	383.79714	-775.47300	-742.66357	380.74213	-714.22961	-692.85260	702.14375	-452.18253	-717.36214	824.06835	-390.26599	-751.94788	712.70207	-391.58166	-720.04508	853.17580	-803.68902	-745.90796	733.02497	-812.70552	-557.62543	1173.99350	-444.75618	-553.52968	1062.67875	-455.91765	-581.55703	1032.43896	-402.73865	-642.95841	1160.62017	-370.49786	-634.65319	1043.54348	-389.06909	-593.69094	1193.46943	-799.21565	-569.29678	1058.15027	-791.69890	-701.73436	1172.33724	-826.15544	-675.96678	1036.14074	-817.46116	-591.26644	1429.07328	-456.45439	-780.68266	1510.18993	-538.73192	-599.16098	1424.95575	-722.29131	-782.94156	1516.05283	-635.01733	-581.89470	1977.63920	-588.87236	-541.79690	1908.16434	-405.06436	-528.40250	1923.10306	-755.87676	-474.09240	1853.14393	-560.31959	-475.64313	1850.97570	-610.38645	-632.85446	1792.94589	-305.69154	-846.66608	1679.73456	-326.10559	-814.15337	1701.05922	-249.48910	-812.79623	1527.73369	-211.30817	-843.52231	1414.64496	-183.33453	-876.66822	1424.67218	-160.48006	-625.43672	1817.87849	-877.84914	-832.31462	1721.02865	-876.42989	-793.81034	1723.51484	-947.08539	-779.18498	1550.94641	-941.93911	-801.23216	1438.58828	-974.58073	-826.31897	1451.52110	-1013.35580	-691.52143	1371.84557	-489.89385	-697.01649	1359.31016	-702.84640	-681.93064	1359.43841	-496.17727	-686.04197	1370.10210	-671.35248	
95	0.94000000	-635.21282	936.32923	-424.58968	-638.53542	811.27712	-433.07518	-836.43901	527.86007	-441.13547	-895.11165	550.96815	-501.76390	-799.40529	377.20967	-408.03641	-741.00944	371.16465	-467.43451	-641.87025	935.14581	-789.46035	-625.14585	824.25247	-774.83662	-813.94444	531.06933	-751.93921	-872.66466	552.20089	-692.29938	-762.77749	379.63790	-775.47001	-713.10284	378.69084	-714.76970	-673.83952	701.89693	-452.38007	-702.16085	822.38697	-390.48072	-732.93599	709.94579	-392.43512	-705.96820	851.58117	-804.83853	-728.02872	730.59240	-813.57479	-547.66944	1175.53576	-444.35746	-542.67779	1064.22865	-455.43895	-570.83115	1033.80085	-402.54184	-633.03407	1161.63405	-370.23525	-624.01372	1044.69228	-389.19648	-584.19454	1194.64243	-799.87934	-558.70666	1059.49332	-792.60148	-692.12367	1172.70847	-826.72913	-665.26916	1036.85374	-818.51303	-582.74235	1428.68028	-456.72653	-771.42792	1510.96741	-539.15562	-590.54027	1424.47786	-722.72637	-774.36528	1515.59743	-635.30914	-567.62801	1977.27193	-589.15505	-528.27571	1907.15284	-405.59130	-514.40575	1921.38330	-756.64586	-461.47714	1851.20784	-561.08909	-463.04434	1848.88753	-611.10324	-622.17507	1793.89189	-306.47033	-838.31114	1685.77615	-328.31354	-805.96719	1706.53048	-251.61293	-809.55227	1533.24812	-212.77638	-843.61886	1421.22414	-184.69811	-876.62547	1432.31248	-162.02319	-613.61673	1818.07670	-878.44187	-822.49561	1726.09378	-876.18835	-784.30598	1727.89496	-947.34817	-774.24016	1554.88261	-943.08178	-799.27752	1443.44201	-975.88749	-824.57484	1457.35272	-1014.64991	-683.03613	1371.89625	-490.07032	-688.70864	1358.99447	-702.99638	-673.46241	1361.25997	-494.93476	-678.82089	1369.70229	-670.30719	
96	0.95000000	-623.73469	936.29382	-424.39924	-623.31683	811.25864	-433.02721	-811.59840	520.66733	-442.32178	-870.26614	542.57473	-502.93601	-770.12769	370.25538	-411.25185	-710.77146	367.64935	-469.42627	-630.42582	934.77172	-789.83709	-610.54891	824.34898	-775.44716	-789.89672	524.51424	-752.65272	-849.00582	543.74470	-693.06510	-733.21973	374.92684	-775.98873	-683.18014	376.12288	-715.65574	-654.83129	700.82888	-452.36799	-687.22427	819.84884	-390.24193	-713.89304	706.20018	-393.15291	-692.21421	849.12236	-805.75603	-710.39469	727.57027	-814.46169	-537.96291	1175.99412	-443.85279	-532.25010	1064.71114	-455.06218	-560.53877	1034.23830	-402.08219	-623.27782	1161.71419	-369.87418	-613.69583	1044.71059	-389.22152	-574.97667	1194.79412	-800.54432	-548.51413	1059.78129	-793.49743	-682.70246	1172.09816	-827.45979	-655.06043	1036.53912	-819.22755	-574.25563	1427.34459	-456.99584	-762.19385	1510.82228	-539.58776	-581.99429	1422.94265	-722.98369	-765.66298	1514.36267	-635.80712	-553.24829	1975.79698	-589.73176	-514.73603	1905.05393	-406.08307	-500.32947	1918.61534	-757.34200	-448.90626	1848.25225	-561.79202	-450.52498	1845.81910	-611.57979	-611.41904	1793.77357	-307.28646	-829.84002	1691.00591	-330.49472	-797.54946	1711.03085	-253.69775	-806.33595	1537.77397	-214.53169	-843.69617	1426.99811	-186.44294	-876.48675	1439.06652	-163.94341	-601.66300	1817.12652	-879.04141	-812.62076	1730.17300	-876.01904	-774.50031	1731.10547	-947.56172	-769.08843	1557.68937	-943.89756	-797.58104	1447.26775	-976.82052	-822.78625	1462.19644	-1015.47516	-674.68218	1371.06675	-490.21683	-680.45264	1357.71675	-703.11241	-665.11935	1361.97721	-493.92563	-671.44314	1368.43381	-669.34429	
97	0.96000000	-612.44434	935.20180	-424.29894	-608.15156	810.26293	-432.89215	-786.44242	512.86410	-443.30971	-845.05126	533.34056	-503.26135	-739.84575	363.16414	-413.97527	-679.80150	364.03273	-471.26357	-619.23128	933.40125	-790.27085	-596.25760	823.56694	-776.28586	-765.67502	517.20135	-753.45450	-825.04898	534.52468	-694.00358	-703.71930	369.56375	-776.82594	-653.21941	373.05458	-716.88710	-635.82467	698.87371	-452.40683	-672.47532	816.51144	-389.91173	-695.21646	702.26180	-392.74007	-678.79800	845.71751	-806.05316	-693.00174	723.76059	-815.32937	-528.46539	1175.37090	-443.61519	-522.03559	1064.20135	-454.67402	-550.29408	1033.59033	-401.70557	-613.59275	1160.79939	-369.62525	-603.38620	1043.73187	-388.98847	-565.89108	1193.84075	-801.29695	-538.60651	1058.98064	-794.25349	-673.43787	1170.44214	-828.08557	-645.06495	1035.00358	-819.50191	-565.70626	1425.06840	-457.24514	-752.89575	1509.76397	-539.94827	-573.49509	1420.38848	-723.17899	-756.69773	1512.35592	-636.57987	-538.68902	1973.12938	-590.59651	-501.22571	1901.91571	-406.51131	-486.30557	1914.85175	-757.88242	-436.35678	1844.27584	-562.39002	-438.07972	1841.80178	-611.92649	-600.59567	1792.60053	-308.19429	-821.23473	1695.42133	-332.70890	-788.92818	1714.59769	-255.70370	-803.02595	1541.56738	-216.62518	-843.69864	1431.92205	-188.65454	-876.21522	1445.05689	-166.30573	-589.60059	1815.15442	-879.65463	-802.40174	1733.06128	-875.66939	-764.57120	1733.06008	-947.43699	-763.78131	1559.59302	-944.48947	-795.72627	1450.21793	-977.50745	-820.80220	1465.86179	-1015.84390	-666.35873	1369.35897	-490.36820	-672.18964	1355.50822	-703.23015	-656.90100	1361.54786	-493.20416	-663.80229	1366.25600	-668.62251	
